<?xml version="1.0" encoding="UTF-8"?>
<svg id="Ebene_1" data-name="Ebene 1" xmlns="http://www.w3.org/2000/svg" viewBox="0 0 299.76 333">
  <defs>
    <style>
      .cls-1 {
        fill: #fff;
      }
    </style>
  </defs>
  <path class="cls-1" d="m113.66,194.74h57.73l-30.05,112.92,119.77-160.23h-57.66l29.91-112.91-48.67,65.11.1.45c.85,3.92,1.4,7.94,1.67,12.31l.17,2.72,21.97-29.46-19.19,72.52h50.1l-73.33,98.15,19.26-72.45h-50.17l24-32.07c7.62-10.36,11.64-22.65,11.64-35.54,0-33.19-27-60.19-60.19-60.19s-60.19,27-60.19,60.19v5.4h47.31v-5.4c0-7.07,5.78-12.82,12.88-12.82s12.88,5.75,12.88,12.82c0,2.85-.87,5.45-2.58,7.73l-80.37,107.26h104.63l2.91-10.8H62.26l67.41-89.9c3.1-4.09,4.74-9.01,4.74-14.22,0-13.03-10.63-23.62-23.69-23.62-11,0-20.55,7.61-23.02,18.22h-26.06c2.71-24.75,24.06-43.99,49.08-43.99,27.23,0,49.39,22.16,49.39,49.39,0,10.52-3.28,20.6-9.48,29.13l-36.96,49.28Z"/>
</svg>